<mxfile host="Electron" modified="2024-04-17T18:10:01.193Z" agent="Mozilla/5.0 (Windows NT 10.0; Win64; x64) AppleWebKit/537.36 (KHTML, like Gecko) draw.io/24.2.5 Chrome/120.0.6099.109 Electron/28.1.0 Safari/537.36" etag="4skXVeafRiNXAJj6Df17" version="24.2.5" type="device">
  <diagram name="Page-1" id="nIT0MMNd-quHmynmsUbV">
    <mxGraphModel dx="2594" dy="1063" grid="0" gridSize="10" guides="1" tooltips="1" connect="1" arrows="1" fold="1" page="0" pageScale="1" pageWidth="827" pageHeight="1169" math="0" shadow="0">
      <root>
        <mxCell id="0" />
        <mxCell id="1" parent="0" />
        <mxCell id="cturjr1TkDAayo1eItlD-15" value="Username/password" style="endArrow=classic;html=1;rounded=0;fontSize=14;exitX=1;exitY=0.25;exitDx=0;exitDy=0;align=center;labelPosition=right;verticalLabelPosition=bottom;verticalAlign=top;textDirection=rtl;fontStyle=1;entryX=0;entryY=0.5;entryDx=0;entryDy=0;" edge="1" parent="1" source="cturjr1TkDAayo1eItlD-1" target="cturjr1TkDAayo1eItlD-14">
          <mxGeometry x="0.0772" y="16" width="50" height="50" relative="1" as="geometry">
            <mxPoint x="-430" y="840" as="sourcePoint" />
            <mxPoint x="-610" y="690" as="targetPoint" />
            <mxPoint as="offset" />
          </mxGeometry>
        </mxCell>
        <mxCell id="cturjr1TkDAayo1eItlD-17" value="Username/password" style="endArrow=classic;html=1;rounded=0;fontSize=14;exitX=1;exitY=0.423;exitDx=0;exitDy=0;align=center;labelPosition=right;verticalLabelPosition=bottom;verticalAlign=top;textDirection=rtl;entryX=0.092;entryY=0.27;entryDx=0;entryDy=0;entryPerimeter=0;exitPerimeter=0;fontStyle=1" edge="1" parent="1">
          <mxGeometry x="0.0772" y="16" width="50" height="50" relative="1" as="geometry">
            <mxPoint x="-503.0000000000001" y="809.52" as="sourcePoint" />
            <mxPoint x="-295.96000000000004" y="809.6000000000001" as="targetPoint" />
            <mxPoint as="offset" />
          </mxGeometry>
        </mxCell>
        <mxCell id="cturjr1TkDAayo1eItlD-20" value="Candidate Details" style="endArrow=classic;html=1;rounded=0;fontSize=14;align=center;labelPosition=center;verticalLabelPosition=middle;verticalAlign=middle;textDirection=rtl;exitX=0.109;exitY=-0.009;exitDx=0;exitDy=0;fontStyle=1;exitPerimeter=0;entryX=0.819;entryY=0.927;entryDx=0;entryDy=0;entryPerimeter=0;" edge="1" parent="1" source="cturjr1TkDAayo1eItlD-1" target="cturjr1TkDAayo1eItlD-18">
          <mxGeometry x="0.2941" y="-9" width="50" height="50" relative="1" as="geometry">
            <mxPoint x="-500" y="850" as="sourcePoint" />
            <mxPoint x="-190" y="840" as="targetPoint" />
            <mxPoint as="offset" />
          </mxGeometry>
        </mxCell>
        <mxCell id="cturjr1TkDAayo1eItlD-25" value="" style="endArrow=classic;html=1;rounded=0;exitX=0.07;exitY=0.67;exitDx=0;exitDy=0;exitPerimeter=0;entryX=1;entryY=0.557;entryDx=0;entryDy=0;entryPerimeter=0;" edge="1" parent="1" source="cturjr1TkDAayo1eItlD-16" target="cturjr1TkDAayo1eItlD-1">
          <mxGeometry width="50" height="50" relative="1" as="geometry">
            <mxPoint x="-196.87999999999988" y="844.3600000000004" as="sourcePoint" />
            <mxPoint x="-510" y="844" as="targetPoint" />
          </mxGeometry>
        </mxCell>
        <mxCell id="cturjr1TkDAayo1eItlD-26" value="Response" style="edgeLabel;html=1;align=center;verticalAlign=middle;resizable=0;points=[];fontStyle=1;fontSize=14;" vertex="1" connectable="0" parent="cturjr1TkDAayo1eItlD-25">
          <mxGeometry x="-0.0012" y="-2" relative="1" as="geometry">
            <mxPoint as="offset" />
          </mxGeometry>
        </mxCell>
        <mxCell id="cturjr1TkDAayo1eItlD-27" value="" style="endArrow=classic;html=1;rounded=0;exitX=0.4;exitY=0.972;exitDx=0;exitDy=0;exitPerimeter=0;entryX=0;entryY=0.5;entryDx=0;entryDy=0;" edge="1" parent="1" source="cturjr1TkDAayo1eItlD-18" target="cturjr1TkDAayo1eItlD-1">
          <mxGeometry width="50" height="50" relative="1" as="geometry">
            <mxPoint x="-297.03999999999996" y="1024" as="sourcePoint" />
            <mxPoint x="-500.0400000000001" y="928.6400000000001" as="targetPoint" />
          </mxGeometry>
        </mxCell>
        <mxCell id="cturjr1TkDAayo1eItlD-28" value="Response" style="edgeLabel;html=1;align=center;verticalAlign=middle;resizable=0;points=[];fontStyle=1;fontSize=14;" vertex="1" connectable="0" parent="cturjr1TkDAayo1eItlD-27">
          <mxGeometry x="-0.0012" y="-2" relative="1" as="geometry">
            <mxPoint as="offset" />
          </mxGeometry>
        </mxCell>
        <mxCell id="cturjr1TkDAayo1eItlD-31" value="Username/password" style="endArrow=classic;html=1;rounded=0;fontSize=16;align=center;labelPosition=right;verticalLabelPosition=bottom;verticalAlign=top;textDirection=rtl;fontStyle=1;exitX=0.968;exitY=0.36;exitDx=0;exitDy=0;exitPerimeter=0;entryX=0;entryY=0.444;entryDx=0;entryDy=0;entryPerimeter=0;" edge="1" parent="1" source="cturjr1TkDAayo1eItlD-16" target="cturjr1TkDAayo1eItlD-3">
          <mxGeometry x="0.0772" y="16" width="50" height="50" relative="1" as="geometry">
            <mxPoint x="-90" y="840" as="sourcePoint" />
            <mxPoint x="-290" y="822" as="targetPoint" />
            <mxPoint as="offset" />
          </mxGeometry>
        </mxCell>
        <mxCell id="cturjr1TkDAayo1eItlD-32" value="Validate Credentials" style="endArrow=classic;html=1;rounded=0;exitX=-0.013;exitY=0.608;exitDx=0;exitDy=0;exitPerimeter=0;entryX=0.997;entryY=0.615;entryDx=0;entryDy=0;entryPerimeter=0;fontSize=16;fontStyle=1" edge="1" parent="1">
          <mxGeometry width="50" height="50" relative="1" as="geometry">
            <mxPoint x="58.61999999999989" y="872.44" as="sourcePoint" />
            <mxPoint x="-188.3599999999999" y="845.1999999999998" as="targetPoint" />
          </mxGeometry>
        </mxCell>
        <mxCell id="cturjr1TkDAayo1eItlD-37" value="Username/password" style="endArrow=classic;html=1;rounded=0;fontSize=14;exitX=1;exitY=0.5;exitDx=0;exitDy=0;align=center;labelPosition=right;verticalLabelPosition=bottom;verticalAlign=top;textDirection=rtl;entryX=0;entryY=0.33;entryDx=0;entryDy=0;entryPerimeter=0;fontStyle=1" edge="1" parent="1" source="cturjr1TkDAayo1eItlD-14" target="cturjr1TkDAayo1eItlD-3">
          <mxGeometry x="0.0772" y="16" width="50" height="50" relative="1" as="geometry">
            <mxPoint x="-240" y="695" as="sourcePoint" />
            <mxPoint x="-40" y="695" as="targetPoint" />
            <mxPoint as="offset" />
          </mxGeometry>
        </mxCell>
        <mxCell id="cturjr1TkDAayo1eItlD-38" value="Candidate Details" style="endArrow=classic;html=1;rounded=0;fontSize=14;align=center;labelPosition=right;verticalLabelPosition=bottom;verticalAlign=top;textDirection=rtl;fontStyle=1;exitX=0.5;exitY=0;exitDx=0;exitDy=0;entryX=0.474;entryY=1.001;entryDx=0;entryDy=0;entryPerimeter=0;" edge="1" parent="1" source="cturjr1TkDAayo1eItlD-18" target="cturjr1TkDAayo1eItlD-59">
          <mxGeometry x="0.0772" y="16" width="50" height="50" relative="1" as="geometry">
            <mxPoint x="-193.62256693051177" y="993.0937911106464" as="sourcePoint" />
            <mxPoint x="-660" y="430" as="targetPoint" />
            <mxPoint as="offset" />
          </mxGeometry>
        </mxCell>
        <mxCell id="cturjr1TkDAayo1eItlD-40" value="Username/password" style="endArrow=classic;html=1;rounded=0;fontSize=14;align=center;labelPosition=right;verticalLabelPosition=bottom;verticalAlign=top;textDirection=rtl;fontStyle=1;entryX=0.5;entryY=0;entryDx=0;entryDy=0;movable=1;resizable=1;rotatable=1;deletable=1;editable=1;locked=0;connectable=1;" edge="1" parent="1" target="cturjr1TkDAayo1eItlD-39">
          <mxGeometry x="0.0772" y="16" width="50" height="50" relative="1" as="geometry">
            <mxPoint x="250" y="380" as="sourcePoint" />
            <mxPoint x="-480" y="170" as="targetPoint" />
            <mxPoint as="offset" />
          </mxGeometry>
        </mxCell>
        <mxCell id="cturjr1TkDAayo1eItlD-41" value="Username/password" style="endArrow=classic;html=1;rounded=0;fontSize=14;exitX=-0.004;exitY=0.59;exitDx=0;exitDy=0;align=center;labelPosition=center;verticalLabelPosition=middle;verticalAlign=middle;textDirection=vertical-rl;entryX=0.66;entryY=0.032;entryDx=0;entryDy=0;entryPerimeter=0;exitPerimeter=0;fontStyle=1;movable=1;resizable=1;rotatable=1;deletable=1;editable=1;locked=0;connectable=1;endSize=5;" edge="1" parent="1" source="cturjr1TkDAayo1eItlD-48" target="cturjr1TkDAayo1eItlD-49">
          <mxGeometry x="0.3406" y="11" width="50" height="50" relative="1" as="geometry">
            <mxPoint x="188.48000000000002" y="400" as="sourcePoint" />
            <mxPoint x="189.79999999999995" y="563.28" as="targetPoint" />
            <mxPoint as="offset" />
          </mxGeometry>
        </mxCell>
        <mxCell id="cturjr1TkDAayo1eItlD-43" value="Employee Details" style="endArrow=classic;html=1;rounded=0;fontSize=14;align=center;labelPosition=right;verticalLabelPosition=bottom;verticalAlign=top;textDirection=rtl;fontStyle=1;movable=1;resizable=1;rotatable=1;deletable=1;editable=1;locked=0;connectable=1;" edge="1" parent="1" target="cturjr1TkDAayo1eItlD-42">
          <mxGeometry x="0.0772" y="16" width="50" height="50" relative="1" as="geometry">
            <mxPoint x="100" y="370" as="sourcePoint" />
            <mxPoint x="-60" y="320" as="targetPoint" />
            <mxPoint as="offset" />
          </mxGeometry>
        </mxCell>
        <mxCell id="cturjr1TkDAayo1eItlD-44" value="" style="endArrow=classic;html=1;rounded=0;movable=1;resizable=1;rotatable=1;deletable=1;editable=1;locked=0;connectable=1;" edge="1" parent="1">
          <mxGeometry width="50" height="50" relative="1" as="geometry">
            <mxPoint x="154" y="577" as="sourcePoint" />
            <mxPoint x="154" y="380" as="targetPoint" />
          </mxGeometry>
        </mxCell>
        <mxCell id="cturjr1TkDAayo1eItlD-45" value="Response" style="edgeLabel;html=1;align=center;verticalAlign=middle;resizable=0;points=[];fontStyle=1;fontSize=14;textDirection=vertical-rl;movable=0;rotatable=0;deletable=0;editable=0;locked=1;connectable=0;" vertex="1" connectable="0" parent="cturjr1TkDAayo1eItlD-44">
          <mxGeometry x="-0.0012" y="-2" relative="1" as="geometry">
            <mxPoint as="offset" />
          </mxGeometry>
        </mxCell>
        <mxCell id="cturjr1TkDAayo1eItlD-46" value="" style="endArrow=classic;html=1;rounded=0;exitX=0;exitY=0;exitDx=0;exitDy=0;movable=1;resizable=1;rotatable=1;deletable=1;editable=1;locked=0;connectable=1;entryX=0.041;entryY=-0.005;entryDx=0;entryDy=0;entryPerimeter=0;" edge="1" parent="1" source="cturjr1TkDAayo1eItlD-42">
          <mxGeometry width="50" height="50" relative="1" as="geometry">
            <mxPoint x="-65.75999999999999" y="508.36" as="sourcePoint" />
            <mxPoint x="45.799999999999955" y="374.43999999999994" as="targetPoint" />
          </mxGeometry>
        </mxCell>
        <mxCell id="cturjr1TkDAayo1eItlD-47" value="Response" style="edgeLabel;html=1;align=center;verticalAlign=middle;resizable=0;points=[];fontStyle=1;fontSize=14;movable=0;rotatable=0;deletable=0;editable=0;locked=1;connectable=0;" vertex="1" connectable="0" parent="cturjr1TkDAayo1eItlD-46">
          <mxGeometry x="-0.0012" y="-2" relative="1" as="geometry">
            <mxPoint as="offset" />
          </mxGeometry>
        </mxCell>
        <mxCell id="cturjr1TkDAayo1eItlD-53" value="Username/password" style="endArrow=classic;html=1;rounded=0;fontSize=14;exitX=0.556;exitY=0.981;exitDx=0;exitDy=0;align=center;labelPosition=right;verticalLabelPosition=bottom;verticalAlign=top;textDirection=rtl;entryX=0.815;entryY=-0.019;entryDx=0;entryDy=0;entryPerimeter=0;fontStyle=1;exitPerimeter=0;" edge="1" parent="1" source="cturjr1TkDAayo1eItlD-39" target="cturjr1TkDAayo1eItlD-3">
          <mxGeometry x="0.0772" y="16" width="50" height="50" relative="1" as="geometry">
            <mxPoint x="-174" y="670" as="sourcePoint" />
            <mxPoint x="70" y="809" as="targetPoint" />
            <mxPoint as="offset" />
          </mxGeometry>
        </mxCell>
        <mxCell id="cturjr1TkDAayo1eItlD-55" value="Username/password" style="endArrow=classic;html=1;rounded=0;fontSize=14;exitX=0.743;exitY=0.932;exitDx=0;exitDy=0;align=center;labelPosition=right;verticalLabelPosition=bottom;verticalAlign=middle;textDirection=vertical-lr;entryX=0.541;entryY=0;entryDx=0;entryDy=0;entryPerimeter=0;fontStyle=1;exitPerimeter=0;strokeColor=default;fontFamily=Helvetica;fontColor=default;labelBackgroundColor=default;endSize=5;" edge="1" parent="1" source="cturjr1TkDAayo1eItlD-49" target="cturjr1TkDAayo1eItlD-3">
          <mxGeometry x="0.2997" y="9" width="50" height="50" relative="1" as="geometry">
            <mxPoint x="400" y="597" as="sourcePoint" />
            <mxPoint x="311" y="749" as="targetPoint" />
            <mxPoint as="offset" />
          </mxGeometry>
        </mxCell>
        <mxCell id="cturjr1TkDAayo1eItlD-56" value="Validate Credentials" style="endArrow=classic;html=1;rounded=0;exitX=0.343;exitY=-0.002;exitDx=0;exitDy=0;exitPerimeter=0;entryX=0.268;entryY=0.929;entryDx=0;entryDy=0;entryPerimeter=0;fontSize=14;fontStyle=1;textDirection=vertical-rl;spacing=5;labelPosition=left;verticalLabelPosition=middle;align=right;verticalAlign=middle;" edge="1" parent="1" source="cturjr1TkDAayo1eItlD-3" target="cturjr1TkDAayo1eItlD-49">
          <mxGeometry x="-0.4092" y="2" width="50" height="50" relative="1" as="geometry">
            <mxPoint x="67" y="878" as="sourcePoint" />
            <mxPoint x="-180.3599999999999" y="858.1999999999998" as="targetPoint" />
            <Array as="points">
              <mxPoint x="150" y="610" />
            </Array>
            <mxPoint as="offset" />
          </mxGeometry>
        </mxCell>
        <mxCell id="cturjr1TkDAayo1eItlD-57" value="Employee Details" style="endArrow=classic;html=1;rounded=0;fontSize=14;align=center;labelPosition=right;verticalLabelPosition=bottom;verticalAlign=top;textDirection=rtl;fontStyle=1;movable=1;resizable=1;rotatable=1;deletable=1;editable=1;locked=0;connectable=1;exitX=0;exitY=0.5;exitDx=0;exitDy=0;" edge="1" parent="1" source="cturjr1TkDAayo1eItlD-42">
          <mxGeometry x="0.0772" y="16" width="50" height="50" relative="1" as="geometry">
            <mxPoint x="-18.774979578487773" y="579.413595319276" as="sourcePoint" />
            <mxPoint x="-390" y="490" as="targetPoint" />
            <mxPoint as="offset" />
          </mxGeometry>
        </mxCell>
        <mxCell id="cturjr1TkDAayo1eItlD-48" value="Employee" style="rounded=0;whiteSpace=wrap;html=1;rotation=-90;labelPosition=center;verticalLabelPosition=middle;align=center;verticalAlign=middle;fontStyle=1;fontSize=16;textDirection=vertical-rl;" vertex="1" parent="1">
          <mxGeometry x="86" y="181" width="160" height="240" as="geometry" />
        </mxCell>
        <mxCell id="cturjr1TkDAayo1eItlD-42" value="Profile Update" style="ellipse;whiteSpace=wrap;html=1;fontSize=15;movable=1;resizable=1;rotatable=1;deletable=1;editable=1;locked=0;connectable=1;fontStyle=1" vertex="1" parent="1">
          <mxGeometry x="-170" y="470" width="120" height="80" as="geometry" />
        </mxCell>
        <mxCell id="cturjr1TkDAayo1eItlD-49" value="Login" style="ellipse;whiteSpace=wrap;html=1;fontSize=16;fontStyle=1" vertex="1" parent="1">
          <mxGeometry x="110" y="526" width="120" height="80" as="geometry" />
        </mxCell>
        <mxCell id="cturjr1TkDAayo1eItlD-39" value="Signup" style="ellipse;whiteSpace=wrap;html=1;fontSize=16;fontStyle=1" vertex="1" parent="1">
          <mxGeometry x="320" y="518" width="120" height="80" as="geometry" />
        </mxCell>
        <mxCell id="cturjr1TkDAayo1eItlD-3" value="User" style="html=1;dashed=0;whiteSpace=wrap;shape=mxgraph.dfd.dataStoreID;align=center;spacingLeft=3;points=[[0,0],[0.5,0],[1,0],[0,0.5],[1,0.5],[0,1],[0.5,1],[1,1]];fontSize=15;fontStyle=1" vertex="1" parent="1">
          <mxGeometry x="60" y="766" width="260" height="180" as="geometry" />
        </mxCell>
        <mxCell id="cturjr1TkDAayo1eItlD-16" value="Login" style="ellipse;whiteSpace=wrap;html=1;fontSize=16;fontStyle=1" vertex="1" parent="1">
          <mxGeometry x="-304" y="790" width="120" height="80" as="geometry" />
        </mxCell>
        <mxCell id="cturjr1TkDAayo1eItlD-14" value="Signup" style="ellipse;whiteSpace=wrap;html=1;fontSize=16;fontStyle=1" vertex="1" parent="1">
          <mxGeometry x="-304" y="620" width="120" height="80" as="geometry" />
        </mxCell>
        <mxCell id="cturjr1TkDAayo1eItlD-18" value="Profile Update" style="ellipse;whiteSpace=wrap;html=1;fontSize=15;movable=1;resizable=1;rotatable=1;deletable=1;editable=1;locked=0;connectable=1;fontStyle=1" vertex="1" parent="1">
          <mxGeometry x="-780" y="550" width="120" height="80" as="geometry" />
        </mxCell>
        <mxCell id="cturjr1TkDAayo1eItlD-1" value="&lt;font style=&quot;font-size: 22px;&quot;&gt;Candidate&lt;/font&gt;" style="rounded=0;whiteSpace=wrap;html=1;fontStyle=1" vertex="1" parent="1">
          <mxGeometry x="-660" y="710" width="160" height="240" as="geometry" />
        </mxCell>
        <mxCell id="cturjr1TkDAayo1eItlD-59" value="Candidate" style="html=1;dashed=0;whiteSpace=wrap;shape=mxgraph.dfd.dataStoreID;align=center;spacingLeft=3;points=[[0,0],[0.5,0],[1,0],[0,0.5],[1,0.5],[0,1],[0.5,1],[1,1]];fontSize=15;fontStyle=1" vertex="1" parent="1">
          <mxGeometry x="-780" y="230" width="230" height="70" as="geometry" />
        </mxCell>
        <mxCell id="cturjr1TkDAayo1eItlD-61" value="Employee" style="html=1;dashed=0;whiteSpace=wrap;shape=mxgraph.dfd.dataStoreID;align=center;spacingLeft=3;points=[[0,0],[0.5,0],[1,0],[0,0.5],[1,0.5],[0,1],[0.5,1],[1,1]];fontSize=15;fontStyle=1" vertex="1" parent="1">
          <mxGeometry x="-560" y="440" width="164" height="70" as="geometry" />
        </mxCell>
      </root>
    </mxGraphModel>
  </diagram>
</mxfile>
